<svg xmlns="http://www.w3.org/2000/svg" viewBox="0 0 1024 1024" role="img" aria-label="Form">
  <path fill="#C5C5C5" d="M64 768A64 64 0 0 1 128 704 64 64 0 0 1 192 768 64 64 0 0 1 128 832 64 64 0 0 1 64 768zM298.666667 810.666667a42.666667 42.666667 0 0 1-42.666667-42.666667 42.666667 42.666667 0 0 1 42.666667-42.666667h597.333333a42.666667 42.666667 0 0 1 42.666667 42.666667 42.666667 42.666667 0 0 1-42.666667 42.666667z m-234.666667-298.666667A64 64 0 0 1 128 448 64 64 0 0 1 192 512 64 64 0 0 1 128 576 64 64 0 0 1 64 512zM298.666667 554.666667a42.666667 42.666667 0 0 1-42.666667-42.666667 42.666667 42.666667 0 0 1 42.666667-42.666667h597.333333a42.666667 42.666667 0 0 1 42.666667 42.666667 42.666667 42.666667 0 0 1-42.666667 42.666667zM64 256A64 64 0 0 1 128 192 64 64 0 0 1 192 256 64 64 0 0 1 128 320 64 64 0 0 1 64 256zM298.666667 298.666667a42.666667 42.666667 0 0 1-42.666667-42.666667 42.666667 42.666667 0 0 1 42.666667-42.666667h597.333333a42.666667 42.666667 0 0 1 42.666667 42.666667 42.666667 42.666667 0 0 1-42.666667 42.666667z"/>
</svg>
